<svg width="313" height="36" viewBox="0 0 313 36" fill="none" xmlns="http://www.w3.org/2000/svg">
<path fill-rule="evenodd" clip-rule="evenodd" d="M163.15 5.62326C160.776 5.86794 161.446 7.82126 158.909 9.9177C157.327 11.2203 156.231 11.8913 155.014 12.8484C152.254 15.0262 150.692 17.5089 150.753 21.1721C151.402 15.2701 156.15 12.5022 158.098 11.057C155.278 13.5397 153.979 15.5953 153.147 17.285C151.382 20.8662 151.301 23.5122 154.852 26.1373C156.313 27.196 158.341 28.4776 158.686 31.4286C157.814 29.9226 155.845 28.254 154.223 27.7856C157.57 30.3706 159.133 32.3442 158.625 35.7841C157.509 31.0629 151.991 29.6179 149.414 25.5674C143.388 15.3717 154.79 13.5397 158.077 8.63532C154.587 12.0954 149.657 12.95 147.304 18.0577C148.642 12.8484 150.631 11.2611 152.173 10.1008C154.872 8.12647 157.712 7.47503 159.01 3.77176C156.86 7.45552 154.811 7.61813 151.726 9.69329C149.271 11.3424 146.918 13.8862 146.309 19.6451C143.692 14.1501 146.675 6.45758 150.591 3.01849C154.649 -0.543192 159.68 -1.25543 163.84 4.11724C169.278 7.33268 171.225 14.6187 163.962 23.7359C169.196 16.3686 168.019 9.87692 164.935 7.25112C168.567 12.5425 166.275 17.5289 164.144 21.9452C162.825 24.6718 163.211 25.2824 164.367 28.0506C162.277 26.2186 162.845 24.5294 160.614 22.6982C159.092 21.4768 157.205 20.7238 155.927 19.3399C155.237 18.5663 155.014 17.7323 155.927 15.6764C156.414 14.6389 156.941 14.4558 157.529 14.842C158.077 15.2291 159.903 16.8569 160.147 15.473C160.208 15.086 160.127 14.8623 160.552 14.6794C160.836 14.5574 161.121 14.6184 161.039 14.2111C160.999 14.0077 161.06 13.9264 161.303 13.8859C161.587 13.8249 161.567 13.7233 161.526 13.3973C161.405 12.6035 162.033 12.7053 162.419 12.5833C162.784 12.4612 162.784 12.1767 162.683 11.8505C162.622 11.6676 162.582 11.4845 162.521 11.3016C162.338 10.6502 162.318 10.2227 162.399 9.77535L163.109 9.69329L162.48 9.44938C163.028 8.10596 163.434 7.49605 163.15 5.62352L163.15 5.62326ZM164.793 10.2227C165.159 11.8505 165.016 13.5607 164.611 15.1278C163.901 17.8341 162.744 18.7497 162.196 22.047C162.358 18.5666 163.414 17.4273 164.124 14.9439C164.509 13.6012 164.753 12.0547 164.793 10.2227ZM153.979 1.75663C148.988 4.09672 146.269 9.73382 146.188 15.1683C147.223 9.85666 148.907 5.29779 153.979 1.75663Z" fill="#FB7902"/>
<path d="M0.731688 20.0086H2.19507C2.23571 20.5776 2.40509 21.0858 2.70318 21.5329C3.00128 21.98 3.40777 22.3323 3.92266 22.5898C4.4511 22.8472 5.06762 22.976 5.77221 22.976C6.38195 22.976 6.89007 22.8879 7.29656 22.7117C7.7166 22.522 8.02825 22.2646 8.2315 21.9394C8.44829 21.6142 8.55669 21.2348 8.55669 20.8012C8.55669 20.3541 8.44829 19.995 8.2315 19.724C8.0147 19.453 7.70305 19.2227 7.29656 19.033C6.89007 18.8433 6.40905 18.6603 5.85351 18.4842C5.32507 18.3216 4.78985 18.1319 4.24786 17.9151C3.70587 17.6983 3.19775 17.4341 2.72351 17.1224C2.26281 16.8108 1.8902 16.4382 1.60565 16.0046C1.3211 15.5574 1.17883 15.0222 1.17883 14.3989C1.17883 13.7892 1.34143 13.2201 1.66662 12.6917C2.00537 12.1497 2.49316 11.7161 3.13 11.3909C3.78039 11.0521 4.5595 10.8828 5.46734 10.8828C6.89007 10.8828 7.95372 11.2689 8.65831 12.0413C9.3629 12.8136 9.70165 13.8366 9.67455 15.1103H8.21117C8.18407 14.1483 7.91308 13.4572 7.39818 13.0372C6.88329 12.6171 6.21258 12.4071 5.38604 12.4071C4.695 12.4071 4.09204 12.5697 3.57714 12.8949C3.06225 13.2066 2.80481 13.7011 2.80481 14.3786C2.80481 14.6767 2.85901 14.9409 2.9674 15.1713C3.08935 15.3881 3.27905 15.5913 3.53649 15.781C3.80749 15.9707 4.16656 16.1604 4.6137 16.3501C5.07439 16.5263 5.63671 16.7227 6.30065 16.9395C6.73424 17.075 7.17461 17.2376 7.62176 17.4273C8.08245 17.617 8.50249 17.8541 8.88188 18.1387C9.27483 18.4232 9.58647 18.7891 9.81682 19.2362C10.0607 19.6698 10.1827 20.2186 10.1827 20.8825C10.1827 21.5194 10.0268 22.1155 9.7152 22.6711C9.4171 23.2131 8.94286 23.6534 8.29247 23.9922C7.65563 24.3309 6.82909 24.5003 5.81286 24.5003C4.94567 24.5003 4.20043 24.3851 3.57714 24.1548C2.9674 23.9109 2.46606 23.5992 2.07312 23.2199C1.68017 22.8405 1.3753 22.4475 1.15851 22.041C0.95526 21.621 0.819762 21.228 0.752013 20.8622C0.684264 20.4963 0.677489 20.2118 0.731688 20.0086ZM27.459 18.4842V22.7727H35.2027V24.2971H25.833V11.086H35.1823V12.6104H27.459V16.9598H33.7799V18.4842H27.459ZM51.2507 24.2971V11.086H57.0839C58.0053 11.086 58.7912 11.2283 59.4416 11.5128C60.092 11.7838 60.5865 12.1971 60.9253 12.7526C61.2776 13.3082 61.4537 14.006 61.4537 14.8461C61.4537 15.4152 61.3589 15.903 61.1692 16.3095C60.993 16.716 60.7424 17.0615 60.4172 17.346C60.092 17.617 59.7058 17.827 59.2587 17.9761C58.8251 18.1251 58.3508 18.22 57.8359 18.2606L57.775 18.159C58.4931 18.1861 59.1096 18.2742 59.6245 18.4232C60.1394 18.5723 60.5391 18.8433 60.8237 19.2362C61.1082 19.6292 61.2505 20.2186 61.2505 21.0045V24.2971H59.6245V21.0045C59.6245 20.4625 59.5297 20.0424 59.34 19.7443C59.1638 19.4327 58.8589 19.2159 58.4253 19.0939C58.0053 18.9584 57.4227 18.8907 56.6774 18.8907H52.8767V24.2971H51.2507ZM52.8767 17.3663H57.0839C58.0053 17.3663 58.6896 17.136 59.1367 16.6753C59.5974 16.2011 59.8278 15.5913 59.8278 14.8461C59.8278 14.1279 59.5974 13.5792 59.1367 13.1998C58.6896 12.8068 58.0053 12.6104 57.0839 12.6104H52.8767V17.3663ZM79.1281 18.4842V22.7727H86.8718V24.2971H77.5021V11.086H86.8515V12.6104H79.1281V16.9598H85.4491V18.4842H79.1281ZM113.123 22.3662L112.676 22.5085V11.086H114.302V24.2971H112.676L104.099 13.0372L104.546 12.8949V24.2971H102.92V11.086H104.546L113.123 22.3662ZM132.385 18.4842V22.7727H140.129V24.2971H130.759V11.086H140.108V12.6104H132.385V16.9598H138.706V18.4842H132.385Z" fill="#1E1E1E"/>
<path d="M173.655 24.2971V11.086H178.858C180.227 11.086 181.291 11.3977 182.049 12.021C182.822 12.6442 183.208 13.5114 183.208 14.6225C183.208 15.3136 183.066 15.8759 182.781 16.3095C182.51 16.7431 182.124 17.0682 181.623 17.285C181.121 17.5018 180.532 17.6441 179.854 17.7119L179.895 17.5899C180.396 17.617 180.871 17.6848 181.318 17.7932C181.765 17.888 182.158 18.0438 182.497 18.2606C182.849 18.4774 183.127 18.7755 183.33 19.1549C183.533 19.5343 183.635 20.0221 183.635 20.6183C183.635 21.4177 183.459 22.0817 183.106 22.6101C182.754 23.1386 182.259 23.545 181.623 23.8296C180.999 24.1006 180.281 24.2564 179.468 24.2971H173.655ZM175.281 22.7727H179.062C179.983 22.7727 180.701 22.6033 181.216 22.2646C181.745 21.9123 182.009 21.3635 182.009 20.6183C182.009 20.0221 181.839 19.575 181.501 19.2769C181.175 18.9788 180.755 18.7823 180.241 18.6874C179.726 18.579 179.197 18.5248 178.655 18.5248H175.281V22.7727ZM175.281 17.0005H178.655C179.577 17.0005 180.295 16.804 180.81 16.4111C181.338 16.0046 181.602 15.4287 181.602 14.6835C181.602 13.9518 181.338 13.4234 180.81 13.0982C180.295 12.773 179.644 12.6104 178.858 12.6104H175.281V17.0005ZM201.017 18.4842V22.7727H208.76V24.2971H199.391V11.086H208.74V12.6104H201.017V16.9598H207.338V18.4842H201.017ZM226.272 20.8419V19.3175H232.613V20.8419H226.272ZM223.589 24.2971L228.609 11.086H230.316L235.377 24.2971H233.629L229.219 12.3461H229.707L225.296 24.2971H223.589ZM259.871 19.2159V11.086H261.497V19.2159C261.497 19.9611 261.409 20.6251 261.233 21.2077C261.056 21.7768 260.806 22.2714 260.481 22.6914C260.169 23.1115 259.79 23.457 259.342 23.728C258.895 23.9854 258.394 24.1751 257.838 24.2971C257.296 24.4326 256.714 24.5003 256.09 24.5003C255.454 24.5003 254.857 24.4326 254.302 24.2971C253.746 24.1751 253.238 23.9854 252.778 23.728C252.33 23.457 251.944 23.1115 251.619 22.6914C251.307 22.2714 251.063 21.7768 250.887 21.2077C250.711 20.6251 250.623 19.9611 250.623 19.2159V11.086H252.249V19.2159C252.249 20.2321 252.425 21.0112 252.778 21.5532C253.13 22.0952 253.597 22.4678 254.18 22.6711C254.763 22.8743 255.399 22.976 256.09 22.976C256.768 22.976 257.391 22.8743 257.96 22.6711C258.529 22.4678 258.99 22.0952 259.342 21.5532C259.695 21.0112 259.871 20.2321 259.871 19.2159ZM276.645 11.086H287.214V12.6104H276.645V11.086ZM281.117 12.4478H282.742V24.2971H281.117V12.4478ZM312.408 11.086L307.733 19.7647V24.2971H306.107V19.7647L301.432 11.086H303.262L307.286 18.7078H306.636L310.579 11.086H312.408Z" fill="#FB7902"/>
</svg>
